<svg width="151" height="113" viewBox="0 0 151 113" fill="none" xmlns="http://www.w3.org/2000/svg">
<path d="M65.7375 88.9223C65.7109 88.9223 65.631 89.8791 65.631 89.9322C65.4712 91.447 65.3113 92.9618 65.1515 94.4767C64.9917 95.8586 64.8585 97.2671 64.6987 98.649C64.6188 99.34 64.3524 100.27 64.8319 100.881C65.5244 101.785 66.9361 101.998 67.9749 102.184C69.3334 102.423 70.6918 102.635 72.0503 102.795C79.7481 103.645 87.4726 102.024 95.197 101.732C97.1681 101.652 99.1925 101.679 101.11 101.253C103.028 100.828 104.972 99.9247 106.144 98.3301C106.624 97.6923 106.97 96.9482 107.21 96.1775C107.556 95.0082 107.663 93.7857 107.636 92.5898C107.609 91.9785 107.583 91.3673 107.503 90.7561C107.45 90.384 106.624 84.8828 106.597 84.8828C106.624 84.9094 65.7375 88.9223 65.7375 88.9223Z" fill="#FF8A5F"/>
<path d="M61.2364 53.0981C56.6816 57.5628 53.9647 64.4459 56.1222 70.4255C56.9746 72.7907 58.5461 74.8636 59.7181 77.0694C61.1831 79.8067 64.0332 81.162 65.8711 83.5273C67.8954 86.1317 69.387 89.1613 73.3292 88.7361C74.2081 88.6298 74.4479 88.8424 75.9395 88.7095C77.4311 88.5767 76.8185 89.3474 77.218 89.746C78.3101 90.8622 79.1891 91.1811 80.2545 92.1644C82.6252 93.3603 86.0346 94.2904 88.6982 94.4499C92.9333 94.7157 97.2484 94.3436 101.297 93.0945C109.181 90.7027 110.54 86.3177 111.286 83.4476C112.697 78.0527 113.15 71.2493 112.511 68.0602C111.818 64.6054 110.726 61.2568 109.608 57.9083C108.995 56.0214 108.276 54.1611 107.397 52.4071C107.024 51.6364 103.348 48.6334 101.856 47.9955C100.152 47.2514 100.098 46.7996 98.3671 46.1618C97.5147 45.8429 94.931 44.8862 94.1053 44.5141C92.4805 43.7966 90.909 42.9462 89.2842 42.202C88.565 41.8831 87.7659 41.4579 86.9935 41.2719C86.1944 41.0593 85.0224 41.3516 84.2233 41.4579C82.4121 41.6971 80.6008 42.202 78.9494 42.9993C76.3124 44.3015 73.6488 45.4177 70.9585 46.6668C67.4692 48.3145 64.0332 50.3342 61.2364 53.0981Z" fill="#FF8A5F"/>
<path d="M62.0358 39.3849C62.0092 39.5444 61.9826 39.7038 61.9826 39.8899C61.876 40.6606 61.4765 41.5376 61.5564 42.5209C61.6363 43.2915 62.0092 44.0622 62.6485 44.4875C64.9924 46.082 70.5328 46.4009 73.1697 45.7099C74.7945 45.2847 73.9954 45.205 75.5403 44.5406C75.7002 44.4875 75.8333 44.4077 75.9132 44.2483C75.9931 44.0888 75.9399 43.9294 75.8866 43.7699C75.4338 42.3614 74.9543 40.82 74.2085 39.5444C73.7024 38.6674 72.7435 38.375 72.0776 37.5778C71.7314 37.1526 71.4384 36.6476 71.1454 36.1693C69.7603 33.8837 68.3486 31.5717 66.9635 29.2861C66.7238 28.8875 66.4841 28.4889 66.1644 28.17C65.8714 27.8776 65.5518 27.665 65.2055 27.4524C64.3798 26.9209 63.2877 26.3894 62.4886 26.9475C61.6896 27.5056 61.7961 28.7015 61.9559 29.6582C62.3288 31.8906 62.462 34.1495 62.3555 36.3819C62.2489 37.4183 62.1424 38.4016 62.0358 39.3849Z" fill="#4A1011"/>
<path d="M64.8054 22.6163C63.4736 24.7158 62.3549 27.5328 62.9409 30.0043C63.5535 32.6353 65.0185 34.2565 64.326 38.0302C64.2994 38.1897 64.2994 38.6415 64.6723 38.7743C66.2172 39.2527 66.8564 40.5283 67.8686 41.7774C68.8808 42.9999 70.1593 44.3552 72.3435 44.7007C74.2346 44.9931 75.8594 44.2489 75.8594 44.2489L77.6174 49.0326C77.6174 49.0591 79.8282 48.2619 79.9614 48.2087C81.16 47.8632 82.2254 47.0925 83.2643 46.4016C84.4895 45.5777 85.7148 44.7273 86.7269 43.6377C87.6326 42.681 88.2718 41.5648 88.6181 40.2094C88.7513 39.7576 89.0709 39.1198 89.0443 38.668C88.9377 36.4888 88.3784 34.3893 87.8723 32.2633C87.4728 30.5093 87.1265 28.5427 86.4073 26.895C85.4218 24.636 83.6904 22.7757 81.6927 21.3141C80.1745 20.2245 78.4698 19.3475 76.6052 19.1614C75.7795 19.0817 74.9804 19.1614 74.1813 19.2678C73.3823 19.3741 72.8495 19.2677 72.1037 19.1614C69.6266 18.7894 66.6433 19.9587 65.205 21.9519C65.0984 22.1911 64.9653 22.4037 64.8054 22.6163Z" fill="#980000"/>
<path d="M88.8047 40.0766C89.0178 41.0333 89.2842 41.3788 89.6304 42.3887C89.0977 43.4517 87.7659 43.6377 87.2598 44.1692C86.1677 45.3386 84.8359 46.2687 83.6906 47.0394C83.584 47.1191 83.4509 47.1989 83.3443 47.2786C82.3588 47.9164 81.3732 48.6074 80.1746 48.9529C80.1214 48.9794 79.8017 49.0857 79.5354 49.1655C79.1891 49.2983 78.7629 49.4312 78.4433 49.5641C78.2568 49.6173 78.1236 49.6704 78.0171 49.7236C77.9638 49.7501 77.9105 49.7501 77.8573 49.7767C77.804 49.8033 77.7507 49.8033 77.6975 49.8033C77.3246 49.8299 77.0316 49.5907 76.9517 49.3515C76.9517 49.3249 75.9128 46.5345 75.4334 45.2323C74.7142 45.4449 73.5156 45.684 72.2371 45.4714C71.5978 45.3651 70.9852 45.1525 70.3725 44.9665C70.1595 44.9134 69.9464 44.8336 69.7599 44.7539C69.5468 44.6476 69.3337 44.5147 69.1473 44.3818C68.1884 43.6909 67.336 42.867 66.6435 41.9103C65.9243 40.927 65.2318 39.9968 64.2196 39.2793C63.5537 38.8275 63.5537 38.1631 63.6336 37.4456C63.7135 36.5686 63.6869 35.6916 63.5803 34.8146C63.5271 34.3894 63.5004 33.9642 63.3672 33.5921C63.2341 33.1935 63.1009 32.8214 62.9677 32.4493C62.7013 31.7584 62.435 31.0408 62.2485 30.217C61.9555 28.9413 62.0354 27.5328 62.4616 26.018C62.8079 24.7955 63.4205 23.4933 64.193 22.2974C64.3261 22.0848 64.486 21.8722 64.6191 21.6596C65.3916 20.5966 66.5902 19.693 68.0019 19.1083C69.387 18.5502 70.8786 18.3642 72.2104 18.5502L72.3702 18.5768C73.0095 18.6831 73.4623 18.7363 74.1016 18.6565C74.9539 18.5502 75.8063 18.4439 76.6853 18.5502C78.4433 18.7363 80.2279 19.4804 82.1191 20.8357C84.4098 22.4834 86.1145 24.5032 87.0734 26.709C87.686 28.1175 88.0323 29.6589 88.3519 31.1737L86.9402 31.4926C86.6206 30.0575 86.3009 28.5693 85.7416 27.2936C84.8892 25.3536 83.3443 23.5199 81.2667 22.0317C79.5886 20.8357 78.0437 20.1713 76.5255 20.0119C75.8063 19.9322 75.0339 20.0119 74.2614 20.1182C73.409 20.2245 72.8497 20.1448 72.1305 20.0385L71.9973 20.0119C70.9053 19.8524 69.68 20.0119 68.5346 20.4637C66.9898 21.1015 65.7645 22.2443 64.992 23.7325C64.0864 25.4333 63.2873 27.3999 63.7402 29.34C63.8201 29.7652 63.9799 30.1638 64.1131 30.5625C64.6458 32.2367 64.992 33.9641 65.1785 35.7181C65.2318 36.2762 65.285 36.8343 65.1785 37.3924C65.1252 37.6848 65.0187 38.0037 65.0986 38.296C65.285 38.8541 66.0042 38.9604 66.457 39.2261C67.043 39.5982 67.4426 40.1297 67.8421 40.6878C68.0286 40.9536 68.215 41.1927 68.4281 41.4585C69.3604 42.6013 70.5057 43.8237 72.4502 44.1161C74.1016 44.3818 75.5666 43.7174 75.5666 43.7174C75.6465 43.6909 75.7264 43.6643 75.8063 43.6643C75.9128 43.6643 76.046 43.6643 76.1526 43.7174C76.339 43.7972 76.4722 43.9566 76.5521 44.1427C76.5521 44.1427 77.5909 46.9597 78.0704 48.2885C78.39 48.1822 78.7895 48.0227 79.0559 47.943C79.562 47.757 79.6952 47.7038 79.7751 47.7038C80.734 47.4115 81.613 46.8268 82.5452 46.2156C82.6518 46.1358 82.785 46.0561 82.8915 45.9764C84.0369 45.2323 85.2088 44.3818 86.221 43.3188C88.2454 41.1927 88.3785 39.4919 88.3519 38.8807C88.272 37.0735 87.8192 35.2664 87.4196 33.4858C87.4196 33.3529 88.3785 38.1897 88.8047 40.0766Z" fill="#E32D22"/>
<path d="M96.0231 74.0397C95.0376 74.8901 93.8922 75.4482 92.4272 75.5013C90.5627 75.5545 88.7248 75.1558 86.8603 75.0761C84.9958 74.9698 82.998 75.2621 81.5863 76.458C81.4532 76.5644 81.3466 76.6972 81.3732 76.8567C81.4265 77.0959 81.7728 77.0959 82.0125 77.0427C83.7705 76.6441 85.5018 76.8567 87.2865 76.777C89.1776 76.6972 91.0688 76.7504 92.9599 76.8035C94.2118 76.8301 95.4904 76.8567 96.6624 76.3783C98.3937 75.6873 99.5124 74.0397 100.418 72.4185C101.19 71.0366 101.856 69.6015 102.442 68.1398C102.629 67.6615 102.762 67.0502 102.362 66.7313C101.856 66.3327 101.164 66.9439 100.818 67.502C100.019 68.7245 99.2194 69.947 98.3937 71.1695C97.7012 72.1794 96.9287 73.2424 96.0231 74.0397Z" fill="#E32D22"/>
<path d="M77.2447 42.4945C77.6709 42.2287 78.0971 41.9098 78.5765 41.8301C78.2303 42.7868 77.5377 43.5841 76.712 44.1422C75.8863 44.7003 74.9274 45.0989 73.9419 45.3381C73.7021 45.3912 73.3825 45.4178 73.276 45.2052C72.7965 44.3282 74.1283 44.0093 74.7143 43.8764C75.8863 43.6372 76.4457 43.026 77.2447 42.4945Z" fill="#E32D22"/>
<path d="M98.2607 46.1094C100.258 47.4913 102.469 49.139 104.227 50.8133C106.811 53.2848 109.315 56.9523 110.407 60.354C111.632 64.234 111.978 68.8582 112.085 72.9243C112.112 74.5454 111.366 82.9699 111.339 83.4483C112.618 82.0398 114.882 69.6289 111.898 59.0252C111.339 57.0054 110.247 55.1451 108.915 53.5506C104.84 48.7138 99.2463 46.4283 98.2607 46.1094Z" fill="#E32D22"/>
<path d="M64.0859 20.4365C63.7396 20.7023 63.3934 20.968 63.1004 21.2604C61.3957 22.9612 60.2769 25.2201 59.9307 27.612C59.8241 28.3827 59.7975 29.1799 60.0905 29.8975C60.3835 30.615 61.7153 31.0934 62.4877 31.12C61.9817 29.3925 62.1148 28.0637 62.2214 27.3994C62.4078 26.23 63.5798 24.7684 63.7396 24.7418C63.5798 26.2832 65.4177 28.6218 66.9093 29.2597C69.9458 30.5884 73.7548 30.4821 75.7525 28.6484C76.1254 28.3029 77.3507 28.7813 77.7502 28.9142C78.1498 29.0471 78.4694 28.9939 78.8157 29.3128C79.1619 29.6317 79.4283 30.0569 79.5881 30.4821C80.6535 33.5118 78.8157 36.4085 79.0021 39.4913C79.1087 41.4579 80.7335 44.0623 81.6125 43.956C82.4914 43.8497 83.4503 43.4777 84.2494 43.1056C85.9541 42.3615 87.5257 41.2985 88.8308 39.9963C90.2159 38.6143 91.3613 36.94 92.0804 35.1329C92.773 33.3523 93.1192 31.3326 92.48 29.5254C92.0804 28.4092 91.3613 27.5588 90.6687 26.6552C90.0561 25.858 88.3247 23.9179 87.7388 23.227C87.0196 22.0576 86.8331 21.473 86.5668 20.8352C85.8476 19.028 84.4625 17.4866 82.7312 16.6096C81.8788 16.1578 80.9465 15.8921 79.9876 15.7326C77.6703 15.3871 75.4862 15.4934 73.2221 16.1578C71.8104 16.583 70.1323 17.0348 68.8005 17.6726C67.735 18.1776 66.6962 18.7091 65.6841 19.3469C65.178 19.719 64.6186 20.0645 64.0859 20.4365Z" fill="#4A1011"/>
<path d="M78.2298 29.7379C78.363 29.791 78.4696 29.8708 78.5495 29.9771C79.0822 30.482 79.5883 32.1828 79.8546 33.2459C80.2275 32.2094 80.3075 31.8905 80.2808 31.0401C80.2542 29.8176 80.2009 29.3127 79.3486 28.4357C78.4696 27.5055 76.4452 27.3726 75.726 28.7014C75.4863 29.1532 75.6728 29.8707 76.2055 29.9505C76.5251 30.0036 76.8181 29.7644 77.1378 29.6581C77.5107 29.5518 77.9102 29.5784 78.2298 29.7379Z" fill="#E32D22"/>
<path d="M81.5064 27.0011C81.4531 26.8416 81.3732 26.7087 81.2933 26.5759C81.0802 26.2304 80.8139 25.938 80.5742 25.6457C79.4288 24.3435 78.3634 23.5728 76.8185 22.8818C77.3778 23.4399 78.1503 24.7953 78.097 24.9016C78.0437 24.9813 75.9928 24.3967 75.6465 24.4232C76.1792 24.7953 76.6587 25.1673 77.218 25.5128C78.8694 26.5493 80.4676 27.6389 82.0391 28.7816C81.8793 28.1704 81.7461 27.5592 81.5064 27.0011Z" fill="black"/>
<path d="M91.2023 28.091C92.2943 29.845 92.1345 32.1571 91.735 34.2034C91.3355 36.2232 89.0448 39.3591 87.7929 41.0068C88.2989 40.6082 88.8317 40.1032 89.3644 39.5452C91.1756 37.6583 93.4397 35.0007 93.7327 33.0075C94.1589 30.2171 93.5729 27.4798 90.563 25.4069C90.1368 25.1145 88.0059 23.52 87.127 22.2178C87.5265 24.1312 90.1635 26.3902 91.2023 28.091Z" fill="#980000"/>
<path d="M41.393 52.7526C41.2864 52.2211 41.0734 51.6895 41.1 51.158C41.1266 50.6265 41.5262 50.0153 42.0589 50.0419C42.4052 50.0419 42.6982 50.3076 42.9379 50.5734C44.0033 51.7161 44.7225 53.1778 44.9622 54.7192C44.9889 54.8786 45.0155 55.0647 44.9622 55.2241C44.909 55.3836 44.829 55.4899 44.6959 55.5962C44.2431 56.0214 43.6038 56.1543 42.9912 56.1277C42.3785 56.1011 41.7925 55.8885 41.2065 55.6759C40.9135 55.5696 40.6205 55.4633 40.3808 55.3038C39.928 55.0381 39.2887 53.8156 39.635 53.3107C40.0079 52.726 41.3664 52.6728 41.393 52.7526Z" fill="#980000"/>
<path d="M57.8002 65.6425C60.4638 66.1208 63.1541 66.5992 65.8443 66.9713C66.1107 66.9978 66.4303 67.051 66.5901 67.2902C66.6701 67.3965 66.75 67.5559 66.8831 67.5294C65.5247 70.2932 62.7013 71.9143 60.3839 73.9607C59.718 74.5453 59.0521 75.2097 58.1731 75.316C57.8269 75.3692 57.4806 75.316 57.1343 75.2895C56.2021 75.1832 55.2432 75.0503 54.3109 74.944C52.9525 74.7845 51.5674 74.5985 50.3155 74.067C50.1823 74.0138 50.0491 73.9341 49.9426 73.8278C49.7295 73.562 49.8094 73.1634 49.916 72.8445C50.2622 71.7815 50.5819 70.6919 50.9281 69.6288C51.4342 68.0343 52.0735 66.4929 53.5385 65.5362C54.7637 64.7389 56.4951 65.4033 57.8002 65.6425Z" fill="#4A1011"/>
<path d="M55.7764 65.4032C55.7764 65.4032 65.0724 67.2635 66.8037 67.4761C67.1233 67.5292 67.8159 66.7851 67.8159 66.7851L56.1493 64.5527L55.7764 65.4032Z" fill="#980000"/>
<path d="M60.7565 57.7222C60.8365 57.8285 60.943 57.9348 60.9963 58.0411C60.9963 58.0411 60.9963 58.0677 61.0229 58.0677C61.1561 58.2537 61.236 58.4398 61.0495 58.5461C60.9164 58.6524 60.5168 58.679 60.357 58.679C59.6911 58.679 59.0252 58.679 58.3327 58.6524C58.1462 58.6524 57.9598 58.6524 57.8266 58.5461C57.7467 58.4663 57.6668 58.36 57.6401 58.2537C57.3205 57.4033 57.7999 56.42 58.7056 56.1808C58.9986 56.1011 59.0518 56.234 59.2649 56.42C59.4514 56.606 59.6645 56.7655 59.8776 56.925C60.1972 57.1907 60.4902 57.4299 60.7565 57.7222Z" fill="#4A1011"/>
<path d="M53.006 72.4983L54.5509 88.4437C54.471 88.4172 54.4177 88.3906 54.3378 88.3906C52.6864 87.8856 51.0083 87.3807 49.3569 86.8758C46.7732 86.1051 44.2161 85.3078 41.6324 84.5371C40.5403 84.2182 39.4749 83.8727 38.3828 83.5538C37.6903 83.3412 36.8379 83.0223 36.5183 82.5971C35.9323 81.8264 35.9856 81.1354 35.7192 78.2652C35.586 76.963 35.4528 75.6608 35.3197 74.3586C35.1598 72.578 34.8935 70.638 34.707 68.8574L53.006 72.4983Z" fill="#980000"/>
<path d="M53.006 72.4987L59.452 56.1546C59.452 56.1546 43.1773 53.7894 42.7511 53.7363C42.325 53.6831 41.7656 54.002 41.5525 54.4538C41.3394 54.9056 34.707 68.8313 34.707 68.8313L53.006 72.4987Z" fill="#E32D22"/>
<path d="M53.0059 72.4984L54.5508 88.4704L61.3163 86.5835L69.4403 83.1287L67.8954 67.1035L53.0059 72.4984Z" fill="#E32D22"/>
<path d="M54.2845 60.4061L51.1148 66.1731L50.1026 66.9438C50.1026 66.9438 40.3805 65.1632 40.2739 65.1366C40.1674 65.1101 40.0342 65.0569 40.1407 64.8177C40.2473 64.5785 42.4581 59.0508 42.4581 59.0508L54.2845 60.4061Z" fill="#FFF5F0"/>
<path d="M59.4514 56.1541C59.2649 55.8618 58.7588 55.8352 58.6257 56.1541C56.9476 60.5923 52.7124 71.9401 52.9788 72.4982C53.1653 72.3919 53.7246 71.9933 53.8045 71.8072C54.9765 68.9902 55.6424 66.7313 56.5214 64.3395C57.4803 61.8148 58.6523 58.7585 59.4514 56.1541Z" fill="#FF8A5F"/>
<path d="M53.0059 72.4987L68.0286 67.5025L67.8155 66.8115C67.8155 66.8115 54.1246 70.9839 53.3255 71.4357C53.1124 71.5686 53.0059 72.4987 53.0059 72.4987Z" fill="#FF8A5F"/>
<path d="M42.4043 59.1577C45.5207 59.4766 48.6105 59.8752 51.6737 60.4067C51.9933 60.4599 52.3662 60.5396 52.526 60.8054C52.7391 61.1508 52.5793 61.6026 52.3928 61.9747C51.94 62.9048 51.4872 63.835 51.0344 64.7651C50.6615 65.5093 50.0755 66.9709 50.0755 66.9709C50.0755 66.9709 51.2208 67.2367 51.5405 66.5457C52.233 65.1106 53.8312 61.6292 54.4172 60.3004C54.577 59.9549 54.4971 59.7423 54.1774 59.6892C52.3928 59.45 46.16 58.5996 44.988 58.4667C44.2688 58.387 42.6973 57.9086 42.4043 59.1577Z" fill="#D6D6D6"/>
<path d="M77.671 88.2842C77.671 88.5234 78.9229 87.6198 78.8163 87.8324C78.5766 88.3639 78.3902 88.1779 77.4313 88.5765C76.8453 88.8157 75.3803 89.613 74.155 89.9053C72.477 90.304 70.7989 90.6229 69.1208 90.9152C67.5759 91.181 65.9778 91.2607 64.4062 91.1544C62.8347 91.0481 61.2632 90.7823 59.7449 90.3571C58.9991 90.1445 58.2533 89.8787 57.5075 89.5598C57.2411 89.4535 54.6308 89.613 54.5242 88.4171C54.4177 87.2212 59.1323 86.9023 61.0234 86.1316C61.9823 85.7329 62.9412 85.3609 63.9001 85.0154C64.7259 84.6965 67.2296 84.2713 67.4427 83.2082C67.496 82.9159 67.2829 82.6236 67.0166 82.4907C66.7502 82.3578 66.4306 82.3844 66.1376 82.411C64.9389 82.6236 63.767 83.4209 62.6216 83.1019C62.5417 83.0754 62.4352 83.0488 62.3819 82.9956C62.2487 82.8893 62.1954 82.7299 62.1688 82.5704C62.1422 81.9326 62.7814 81.4808 63.3141 81.1353C64.4062 80.4444 65.3918 79.6205 66.5637 79.089C69.1474 77.9197 72.5302 79.1156 74.9541 80.0989C75.2205 80.2052 75.4868 80.3115 75.7798 80.3381C76.4191 80.4178 77.3247 80.0457 77.671 80.7367C77.9906 81.3479 77.6444 82.4907 77.6444 83.1551C77.671 84.8825 77.671 86.5834 77.671 88.2842Z" fill="#980000"/>
<path d="M79.2686 86.0788C79.1088 87.4608 78.9223 88.8427 79.4284 90.1184C79.7214 90.8093 80.2009 91.4471 80.2808 92.1913C79.5616 91.7661 78.8691 91.2877 78.1765 90.7828C77.8303 90.517 77.484 90.2778 77.2176 89.9323C75.8858 88.1783 76.605 84.192 76.4186 82.0925C76.3386 81.2686 75.8326 79.4349 76.1256 78.6908C76.3653 77.9998 77.5106 77.6543 78.2298 77.4152C78.3364 77.3886 78.4695 77.3354 78.5761 77.4152C78.656 77.4683 78.6826 77.5746 78.7093 77.6543C79.3752 79.7538 79.4284 82.3848 79.4018 84.5906C79.3752 85.069 79.3219 85.5739 79.2686 86.0788Z" fill="#E32D22"/>
<path d="M68.2421 57.0048C67.2832 58.3336 66.1645 59.3967 64.8327 60.3268C64.6462 60.4597 64.3266 60.6723 64.2201 60.5926C64.1135 60.5128 64.3532 60.3002 64.4598 60.1939C65.099 59.503 65.685 58.7588 66.2178 57.9616C66.5907 57.4035 66.9369 56.7657 67.5229 56.4468C67.6827 56.367 67.8958 56.2873 68.0823 56.3405C68.2687 56.3936 68.4286 56.5531 68.4019 56.7391C68.3486 56.8454 68.2954 56.9251 68.2421 57.0048Z" fill="#FFF5F0"/>
<path d="M70.5323 62.1073C70.3192 62.2934 68.4546 62.4262 67.8953 62.4794C66.7766 62.6123 65.6579 62.6654 64.5658 62.6388C64.5125 62.6388 64.4859 62.6388 64.4326 62.6123C64.3527 62.5325 64.4592 62.4262 64.5391 62.3731C65.1784 62.0542 65.9775 61.8416 66.67 61.7087C67.7355 61.4961 68.6944 61.1772 69.7865 61.124C69.9729 61.124 70.186 61.124 70.3724 61.2303C70.5855 61.3632 70.772 61.8947 70.5323 62.1073Z" fill="#FFF5F0"/>
<path d="M41.6587 61.709C41.9784 61.4433 42.1648 60.9915 42.2447 60.5663C42.5111 59.2641 42.1915 57.829 42.005 56.5268C41.8718 55.6232 41.8186 54.693 41.2592 53.9223C41.0195 53.6034 40.6466 53.3377 40.247 53.3111C39.9008 53.2845 40.1671 52.8859 39.9008 53.0453C39.2615 53.4706 38.9685 53.7629 38.8087 54.0552C38.489 54.6665 38.4358 55.4637 38.1694 56.075C38.0629 56.3142 37.9297 56.5268 37.7166 56.6862C37.5834 56.7659 37.4502 56.8191 37.2904 56.8988C37.1839 56.952 37.104 57.0051 37.0241 57.0848C36.6778 57.3772 36.3582 57.8024 36.3315 58.2808C36.3315 58.4402 36.3315 58.5997 36.2782 58.7591C36.1184 59.1843 35.932 59.2109 35.9586 59.7158C35.9586 60.2208 36.0119 60.7257 36.0652 61.2041C36.1717 62.1608 36.3848 63.1175 36.6512 64.0477C36.7311 64.2869 36.811 64.526 37.0241 64.6324C37.2638 64.7387 37.5568 64.6324 37.7432 64.4463C37.9297 64.2337 37.983 63.9945 38.0629 63.7288C38.1428 63.4364 38.2227 63.1441 38.3026 62.8518C38.276 62.9581 38.569 63.5959 38.6489 63.7288C38.782 64.0211 39.0218 64.2869 39.3414 64.3134C39.5811 64.34 39.8475 64.1806 39.9807 63.9945C40.3003 63.463 40.3802 62.586 40.3802 62.1077C40.7531 62.0811 41.1527 62.0811 41.4723 61.8685C41.5788 61.7888 41.6321 61.7356 41.6587 61.709Z" fill="#980000"/>
<path d="M76.9781 51.3976C77.1379 51.2116 77.2711 50.999 77.4309 50.7863C77.5108 50.68 77.5641 50.5737 77.6973 50.5472C77.8571 50.494 78.0435 50.6269 78.1501 50.7598C78.8959 51.5039 79.695 52.7264 80.4142 52.9656C81.6394 53.3642 84.303 49.9093 84.6227 49.5639C86.4339 47.7036 87.1797 46.5874 88.2984 45.0991C88.7779 44.4613 89.577 43.1857 89.6302 42.3884C88.7513 41.538 88.8578 41.2191 88.0587 41.2457C86.8867 42.6276 85.9811 43.9298 84.3829 44.7802C82.5717 45.737 80.8403 46.7203 78.9492 47.5707C78.4964 47.7833 77.9903 47.9959 77.4842 47.8896C76.2057 47.6504 76.8183 45.4978 75.9659 45.5244C73.4621 46.4014 75.0603 51.876 75.1402 52.7529C75.1402 52.8593 75.1935 53.0187 75.3 53.0187C75.3799 53.0187 75.4332 52.9921 75.4865 52.939C76.0458 52.4606 76.5519 51.9557 76.9781 51.3976Z" fill="#E32D22"/>
<path d="M58.7861 56.0479L60.9437 58.6257C60.9437 58.6257 61.5563 58.5194 61.2899 58.1473C60.8371 57.5627 59.9049 56.4996 59.6651 56.3136C59.2922 56.0744 58.7861 56.0479 58.7861 56.0479Z" fill="#980000"/>
<path d="M39.1549 59.3167C39.3414 59.8216 39.5544 60.6454 39.8474 61.2301C40.0872 61.735 40.4334 62.054 40.4334 62.054C40.4334 62.054 40.1404 61.3896 40.1138 61.0707C40.0872 60.6986 39.9806 60.3265 39.9007 59.981C39.7143 59.2635 39.4479 58.5725 39.2614 57.855C39.2082 57.6158 39.0484 56.2073 38.6755 57.0843C38.4624 57.6424 38.9418 58.7586 39.1549 59.3167Z" fill="#4A1011"/>
<path d="M65.3654 88.4438C65.472 88.4172 65.6051 88.3906 65.7117 88.4438C65.8715 88.5235 65.8715 88.7627 65.7383 88.9221C65.6051 89.0816 65.4453 89.1082 65.2589 89.1613C63.7939 89.5865 62.249 89.7726 60.7307 89.932C60.2513 89.9852 59.7718 90.0383 59.319 89.9852C58.8928 89.932 58.4667 89.8257 58.0938 89.6397C58.5199 89.5068 59.1592 89.6397 59.6386 89.6131C60.2779 89.5865 60.9172 89.4802 61.5564 89.3474C62.835 89.0816 64.0869 88.7095 65.3654 88.4438Z" fill="#4A1011"/>
<path d="M50.0487 64.1004C49.7557 64.127 49.4095 64.0739 49.223 63.7815C49.1697 63.7284 49.1431 63.6486 49.1165 63.5955C49.0632 63.5158 49.0365 63.436 48.9566 63.3563C48.8501 63.25 48.6636 63.1969 48.4772 63.25C48.4239 63.2766 48.3706 63.3032 48.2907 63.3297C48.1043 63.4095 47.8912 63.5158 47.6515 63.4095C47.4384 63.3032 47.3585 63.0906 47.3052 62.8779C47.2786 62.7716 47.2519 62.6388 47.1987 62.5856C47.1454 62.5325 47.0655 62.4793 47.0122 62.4527C46.6393 62.3199 46.2398 62.559 45.9201 62.7716L45.8668 62.7982C45.4939 63.0374 45.0944 63.3297 44.615 63.2766C44.4551 63.2766 44.3486 63.2234 44.2421 63.1437C44.0556 63.0108 43.9224 62.7451 43.9224 62.4262C43.8958 62.4262 43.8691 62.4262 43.8425 62.4262C43.6561 62.4527 43.4696 62.4793 43.2831 62.5059C43.2032 62.5059 43.1233 62.5325 43.0701 62.5325C42.9635 62.5325 42.857 62.5059 42.7504 62.5059C42.5373 62.4793 42.2976 62.4793 42.1644 62.3199C42.1112 62.2667 42.1378 62.187 42.2177 62.187C42.2976 62.187 42.4042 62.2136 42.4841 62.2136C42.6972 62.2136 42.9102 62.2136 43.0967 62.2136C43.2565 62.2136 43.3897 62.187 43.5495 62.1604C43.5761 62.1604 43.9491 62.1073 43.9491 62.1073C43.9491 61.6023 44.029 61.1505 44.4818 60.7785C44.9612 60.4064 45.4673 60.433 45.7337 60.6722C45.9468 60.8582 45.9734 61.124 45.8136 61.3897C45.6804 61.6289 45.2542 62.1338 44.2687 62.373C44.2687 62.373 44.2687 62.373 44.2687 62.3996V62.4527C44.2687 62.5856 44.2953 62.8248 44.4551 62.9311C44.5084 62.9577 44.5883 62.9843 44.6682 63.0108C45.0411 63.0374 45.3874 62.7982 45.7337 62.5856L45.7869 62.559C46.1598 62.2933 46.6659 62.0275 47.172 62.2136C47.3052 62.2667 47.4384 62.3464 47.4917 62.4262C47.5982 62.559 47.6248 62.6919 47.6781 62.8514C47.7314 63.0108 47.758 63.1437 47.8379 63.1703C47.9178 63.2234 48.0244 63.1703 48.2108 63.0906C48.2907 63.064 48.344 63.0374 48.4239 63.0108C48.7169 62.9311 49.0365 62.9842 49.223 63.1703C49.3295 63.2766 49.3828 63.3829 49.4361 63.4892C49.4627 63.5423 49.4894 63.5955 49.516 63.6486C49.6492 63.8347 49.8623 63.8612 50.0754 63.8347C50.2085 63.8347 50.3684 63.8081 50.5015 63.8081C50.5282 63.8081 50.5548 63.8081 50.5814 63.8347C50.6081 63.8612 50.6081 63.8612 50.6081 63.8878C50.6081 63.9144 50.5814 63.9144 50.5814 63.9144C50.395 64.0473 50.2085 64.0739 50.0487 64.1004ZM45.1477 60.8316C44.9879 60.8582 44.828 60.9113 44.6682 61.0442C44.322 61.31 44.2687 61.6289 44.2421 62.0541C44.8547 61.8946 45.3075 61.6023 45.5206 61.2568C45.5739 61.1771 45.6005 61.0442 45.4939 60.9379C45.4407 60.8582 45.3075 60.8316 45.1477 60.8316Z" fill="#D6D6D6"/>
</svg>
